<?xml version="1.0" standalone="no"?>
<!DOCTYPE svg PUBLIC "-//W3C//DTD SVG 20010904//EN"
 "http://www.w3.org/TR/2001/REC-SVG-20010904/DTD/svg10.dtd">
<svg version="1.0" xmlns="http://www.w3.org/2000/svg"
 width="512.000000pt" height="512.000000pt" viewBox="0 0 512.000000 512.000000"
 preserveAspectRatio="xMidYMid meet">

<g transform="translate(0.000000,512.000000) scale(0.100000,-0.100000)"
fill="#000000" stroke="none">
<path d="M1210 5009 c-152 -9 -289 -45 -417 -109 -122 -62 -166 -92 -276 -193
-102 -92 -183 -197 -247 -320 -57 -109 -82 -183 -112 -332 -21 -108 -21 -130
-28 -1420 -3 -720 -3 -1355 1 -1411 11 -152 60 -335 128 -476 28 -60 171 -248
239 -315 56 -55 184 -149 254 -186 82 -44 220 -94 313 -113 136 -28 701 -36
1845 -26 1162 11 1104 8 1283 66 95 32 200 83 291 145 80 53 241 212 290 286
87 129 162 318 192 480 18 95 19 172 18 1465 -1 1513 2 1456 -66 1650 -34 98
-113 259 -159 328 -42 61 -178 197 -252 251 -175 128 -394 208 -634 231 -124
12 -2479 11 -2663 -1z m595 -763 c122 -60 200 -167 229 -311 9 -45 16 -178 20
-375 3 -168 9 -377 13 -466 l6 -161 56 62 c204 225 1093 1136 1155 1184 70 54
131 80 216 90 145 19 284 -23 364 -109 145 -155 154 -388 21 -560 -25 -33 -50
-60 -54 -60 -11 0 -650 -637 -815 -812 l-138 -148 185 -192 c102 -106 225
-229 273 -273 47 -44 193 -191 324 -327 213 -220 243 -255 275 -322 81 -168
49 -342 -86 -476 -95 -93 -201 -125 -336 -100 -145 27 -202 69 -489 368 -120
125 -298 308 -394 407 -97 99 -199 210 -228 246 -28 36 -95 110 -148 165 -147
152 -141 136 -148 354 -13 372 -26 501 -40 409 -3 -19 -7 -369 -10 -779 -6
-820 -7 -827 -68 -943 -90 -170 -284 -266 -457 -226 -158 36 -295 182 -331
352 -7 37 -10 440 -7 1367 3 1476 -2 1373 77 1491 92 134 212 193 378 185 72
-3 95 -9 157 -40z"/>
</g>
</svg>
